<svg width="21" height="18" viewBox="0 0 21 18" fill="none" xmlns="http://www.w3.org/2000/svg">
<path fill-rule="evenodd" clip-rule="evenodd" d="M18.7767 0.929965C19.0238 0.825956 19.2943 0.790084 19.5599 0.826082C19.8256 0.862081 20.0768 0.968633 20.2873 1.13465C20.4979 1.30067 20.6601 1.52008 20.757 1.77005C20.854 2.02002 20.8822 2.29141 20.8387 2.55597L18.5707 16.313C18.3507 17.64 16.8947 18.401 15.6777 17.74C14.6597 17.187 13.1477 16.335 11.7877 15.446C11.1077 15.001 9.02465 13.576 9.28065 12.562C9.50065 11.695 13.0007 8.43696 15.0007 6.49997C15.7857 5.73897 15.4277 5.29997 14.5007 5.99997C12.1987 7.73797 8.50265 10.381 7.28065 11.125C6.20265 11.781 5.64065 11.893 4.96865 11.781C3.74265 11.577 2.60565 11.261 1.67765 10.876C0.423654 10.356 0.484654 8.63197 1.67665 8.12997L18.7767 0.929965Z" fill="white"/>
</svg>
