<svg width="19" height="20" viewBox="0 0 19 20" fill="none" xmlns="http://www.w3.org/2000/svg">
<path d="M1.72224 2.22175C-0.425643 4.36964 -0.425643 7.85204 1.72224 9.99993L4.19711 12.4748C4.58764 12.8653 5.2208 12.8653 5.61133 12.4748C6.00185 12.0843 6.00185 11.4511 5.61133 11.0606L3.13645 8.58571C1.76962 7.21888 1.76962 5.0028 3.13645 3.63597C4.50329 2.26913 6.71937 2.26913 8.0862 3.63597L10.5611 6.11084C10.9516 6.50136 11.5848 6.50136 11.9753 6.11084C12.3658 5.72032 12.3658 5.08715 11.9753 4.69663L9.50041 2.22175C7.35253 0.0738689 3.87012 0.0738689 1.72224 2.22175Z" fill="#F7F7F7"/>
<path d="M8.43975 13.889C8.04923 13.4985 7.41607 13.4985 7.02554 13.889C6.63502 14.2795 6.63502 14.9127 7.02554 15.3032L9.50041 17.7781C11.6483 19.926 15.1307 19.926 17.2786 17.7781C19.4265 15.6302 19.4265 12.1478 17.2786 9.99993L14.8037 7.52505C14.4132 7.13453 13.78 7.13453 13.3895 7.52505C12.999 7.91558 12.999 8.54874 13.3895 8.93927L15.8644 11.4141C17.2312 12.781 17.2312 14.9971 15.8644 16.3639C14.4975 17.7307 12.2815 17.7307 10.9146 16.3639L8.43975 13.889Z" fill="#F7F7F7"/>
<path d="M8.08631 7.17155C7.69578 6.78103 7.06262 6.78103 6.6721 7.17155C6.28157 7.56208 6.28157 8.19524 6.6721 8.58577L10.9147 12.8284C11.3053 13.2189 11.9384 13.2189 12.3289 12.8284C12.7195 12.4379 12.7195 11.8047 12.3289 11.4142L8.08631 7.17155Z" fill="#F7F7F7"/>
</svg>
